<?xml version="1.0" encoding="UTF-8"?> <svg xmlns="http://www.w3.org/2000/svg" id="Object" version="1.1" viewBox="0 0 273 294"><defs><style> .st0 { fill: #fff; } .st1 { fill: #616e7d; } .st2 { fill: #aad4c8; } .st3 { fill: #82bfab; } </style></defs><polygon class="st0" points="156.76 191.69 160.3 187.66 153.06 187.66 156.76 191.69"></polygon><path class="st0" d="M23.08,12.58v269.45h152.2v-38.41c0-1.66.68-3.28,1.85-4.45,1.17-1.17,2.79-1.84,4.45-1.84h40.03v-84.93l-56.13,63.8c-2.13,2.42-5.19,3.82-8.53,3.86-3.18,0-6.23-1.34-8.38-3.68l-26.35-28.71H46.17v-18.68h130.26v.35l11.13-12.64H46.17v-18.68h151.84v6.8l23.6-26.82V12.58H23.08ZM198,125.72H46.17v-18.68h151.84v18.68ZM198,94.76H68.29v-18.68h129.71v18.68Z"></path><path class="st1" d="M221.6,237.33h-40.03c-1.66,0-3.27.67-4.45,1.84-1.17,1.17-1.85,2.79-1.85,4.45v38.41H23.08V12.58h198.52v105.41l12.58-14.3V6.29c0-1.66-.67-3.28-1.84-4.45-1.17-1.17-2.79-1.84-4.45-1.84H16.79c-1.66,0-3.28.67-4.45,1.84-1.17,1.17-1.84,2.79-1.84,4.45v282.03c0,1.66.67,3.28,1.84,4.45,1.17,1.17,2.79,1.84,4.45,1.84h172.65c1.66,0,3.26-.66,4.43-1.83l19.4-19.27.03-.03,19.06-19.14c1.17-1.18,1.84-2.78,1.84-4.44v-111.81l-12.58,14.3v84.93ZM187.87,282.25v-32.34h33.51l-33.51,32.34Z"></path><polygon class="st0" points="187.87 282.25 221.37 249.91 187.87 249.91 187.87 282.25"></polygon><rect class="st3" x="68.29" y="76.08" width="129.71" height="18.68"></rect><rect class="st3" x="46.17" y="107.05" width="151.84" height="18.68"></rect><polygon class="st3" points="46.17 138.01 46.17 156.69 187.55 156.69 198 144.81 198 138.01 46.17 138.01"></polygon><path class="st3" d="M46.17,168.98v18.68h76.04l-4.53-4.93-5.57-6.07c-.93-1.02-1.09-2.53-.38-3.71.57-.96,1.6-1.54,2.69-1.54l.75.09,28.87,7.11c.6.15,1.14.47,1.55.93l7.45,8.12h7.24l16.12-18.32v-.35H46.17Z"></path><path class="st2" d="M266.61,96.51l-12.36-10.88c-.57-.51-1.31-.78-2.07-.78h-.2c-.83.06-1.61.44-2.15,1.06l-15.65,17.78-12.58,14.3-23.6,26.82-10.45,11.88-11.13,12.64-16.12,18.32-3.55,4.03-3.7-4.03-7.45-8.12c-.42-.45-.96-.78-1.55-.93l-28.87-7.11-.75-.09c-1.09,0-2.12.57-2.69,1.54-.71,1.19-.55,2.7.38,3.71l5.57,6.07,4.53,4.93,26.35,28.71c2.15,2.34,5.2,3.68,8.38,3.68,3.34-.03,6.4-1.44,8.53-3.86l56.13-63.8,12.58-14.3,32.71-37.18c1.15-1.3,1.02-3.27-.28-4.42Z"></path></svg> 