<?xml version="1.0" encoding="UTF-8"?> <svg xmlns="http://www.w3.org/2000/svg" id="Layer_1" version="1.1" viewBox="0 0 273 294"><defs><style> .st0 { fill: #2dd68a; } .st1 { fill: #fff; } .st2 { fill: none; stroke: #fff; stroke-miterlimit: 10; stroke-width: 4.06px; } .st3 { fill: #363636; } .st4 { fill: #ed6f5f; } .st5 { fill: #fec40f; } </style></defs><g><path class="st4" d="M67.29,92.91C27.49,116.65.83,160.14.83,209.85h67.85c0-24.6,13.02-46.15,32.54-58.16l-33.94-58.78Z"></path><path class="st5" d="M104.64,149.72c9.61-5.17,20.6-8.11,32.28-8.11s22.63,2.93,32.23,8.08l33.94-58.79c-19.59-10.92-42.15-17.14-66.17-17.14s-46.62,6.23-66.22,17.17l33.94,58.79Z"></path><path class="st0" d="M206.5,92.88l-33.94,58.78c19.55,12,32.58,33.57,32.58,58.19h67.85c0-49.73-26.68-93.23-66.5-116.97Z"></path></g><g><circle class="st2" cx="43.24" cy="162.24" r="19.52" transform="translate(-102.06 78.1) rotate(-45)"></circle><g><path class="st1" d="M37.23,160.69c0,1.02-.83,1.85-1.85,1.85s-1.85-.83-1.85-1.85.83-1.85,1.85-1.85,1.85.83,1.85,1.85Z"></path><path class="st1" d="M53.03,160.69c0,1.02-.83,1.85-1.85,1.85s-1.85-.83-1.85-1.85.83-1.85,1.85-1.85,1.85.83,1.85,1.85Z"></path></g><path class="st1" d="M47.56,172.74c-.38,0-.77-.11-1.12-.34-1.19-.79-2.22-1.18-3.14-1.18-1.29,0-2.47.63-3.22,1.15-.92.64-2.18.41-2.82-.51-.64-.92-.41-2.18.51-2.82,1.77-1.23,3.68-1.88,5.54-1.88,1.74,0,3.5.61,5.38,1.85.93.62,1.19,1.88.57,2.81-.39.59-1.04.91-1.69.91Z"></path></g><g><circle class="st2" cx="223.13" cy="162.24" r="19.52" transform="translate(-49.37 205.3) rotate(-45)"></circle><g><path class="st1" d="M217.08,160.57c0,1.02-.83,1.85-1.85,1.85s-1.85-.83-1.85-1.85.83-1.85,1.85-1.85,1.85.83,1.85,1.85Z"></path><path class="st1" d="M232.88,160.57c0,1.02-.83,1.85-1.85,1.85s-1.85-.83-1.85-1.85.83-1.85,1.85-1.85,1.85.83,1.85,1.85Z"></path></g><path class="st1" d="M223.07,172.62c-1.74,0-3.5-.61-5.38-1.85-.93-.62-1.19-1.88-.57-2.81.62-.93,1.88-1.19,2.81-.57,1.19.79,2.22,1.18,3.14,1.18,1.29,0,2.47-.63,3.22-1.15.92-.64,2.18-.41,2.82.51.64.92.41,2.18-.51,2.82-1.77,1.23-3.69,1.88-5.54,1.88Z"></path></g><g><circle class="st2" cx="136.92" cy="107.39" r="19.52" transform="translate(-35.84 128.27) rotate(-45)"></circle><g><path class="st1" d="M130.87,105.72c0,1.02-.83,1.85-1.85,1.85s-1.85-.83-1.85-1.85.83-1.85,1.85-1.85,1.85.83,1.85,1.85Z"></path><path class="st1" d="M146.66,105.72c0,1.02-.83,1.85-1.85,1.85s-1.85-.83-1.85-1.85.83-1.85,1.85-1.85,1.85.83,1.85,1.85Z"></path></g><path class="st1" d="M140.97,117.1h-8.11c-1.12,0-2.03-.91-2.03-2.03s.91-2.03,2.03-2.03h8.11c1.12,0,2.03.91,2.03,2.03s-.91,2.03-2.03,2.03Z"></path></g><path class="st3" d="M202.36,172.84c1.47-1.34.05-3.74-1.83-3.1-16.44,5.63-67.5,27.13-72.9,30.32-7.07,4.18-9.87,12.52-6.25,18.62,3.61,6.1,12.27,7.66,19.33,3.47,5.4-3.2,48.81-37.62,61.65-49.32ZM127.1,215.3c-1.88-3.17-.83-7.27,2.34-9.14,3.17-1.88,7.27-.83,9.14,2.34,1.88,3.17.83,7.27-2.34,9.14-3.17,1.88-7.27.83-9.14-2.34Z"></path></svg> 