<?xml version="1.0" encoding="UTF-8"?> <svg xmlns="http://www.w3.org/2000/svg" id="Layer_1" version="1.1" viewBox="0 0 273 294"><defs><style> .st0 { fill: #c0d9dd; } .st1 { fill: #fff; } .st2 { fill: #2abbdd; } .st3 { fill: #2d96ba; } .st4 { fill: #39666d; } .st5 { fill: #6ed4e5; } </style></defs><g id="Objects"><g><path class="st0" d="M90.03,40.47h143.48c8.69,0,15.74,7.05,15.74,15.74v36.18H90.03v-51.92Z"></path><path class="st2" d="M271.69,83v165.57c0,9.77-7.92,17.69-17.69,17.69H18.35c-9.77,0-17.69-7.92-17.69-17.69V45.42c0-9.77,7.92-17.69,17.69-17.69h72.59c5.87,0,11.35,2.91,14.64,7.76l14.94,22.05c3.29,4.86,8.78,7.76,14.64,7.76h118.84c9.77,0,17.69,7.92,17.69,17.69Z"></path><path class="st5" d="M29.31,266.26h-10.96c-9.77,0-17.69-7.92-17.69-17.69V45.42c0-9.77,7.92-17.69,17.69-17.69h10.96c-9.77,0-17.69,7.92-17.69,17.69v203.15c0,9.77,7.92,17.69,17.69,17.69Z"></path><path class="st3" d="M243.35,266.26h10.96c9.77,0,17.69-7.91,17.69-17.68V82.99c0-9.76-7.92-17.68-17.69-17.68h-10.96c9.77,0,17.69,7.91,17.69,17.68v165.6c0,9.76-7.92,17.68-17.69,17.68Z"></path><path class="st1" d="M198.41,230.66h-123.99c-14.08,0-22.52-15.65-14.79-27.42l61.99-94.35c6.99-10.64,22.59-10.64,29.58,0l61.99,94.35c7.73,11.77-.71,27.42-14.79,27.42Z"></path><path class="st4" d="M143.43,139.1l-2.75,43.67c-.15,2.4-2.22,4.23-4.63,4.08-2.23-.14-3.95-1.93-4.08-4.1l-2.57-43.68c-.23-3.87,2.73-7.2,6.6-7.43,4.18-.28,7.71,3.29,7.42,7.46h0Z"></path><circle class="st4" cx="136.33" cy="200.91" r="6.21"></circle></g></g></svg> 