<?xml version="1.0" encoding="UTF-8"?> <svg xmlns="http://www.w3.org/2000/svg" xmlns:xlink="http://www.w3.org/1999/xlink" id="Layer_1" version="1.1" viewBox="0 0 273 294"><defs><style> .st0 { fill: url(#linear-gradient2); } .st1 { isolation: isolate; opacity: .2; } .st1, .st2 { fill: #e6e6e6; } .st3 { fill: url(#linear-gradient1); } .st4 { fill: url(#linear-gradient7); } .st5 { fill: url(#linear-gradient4); } .st6 { fill: #474747; } .st7 { fill: url(#linear-gradient5); } .st8 { fill: url(#linear-gradient3); } .st9 { fill: url(#linear-gradient6); } .st10 { fill: url(#linear-gradient); } </style><linearGradient id="linear-gradient" x1="231.79" y1="158.24" x2="272.86" y2="158.24" gradientTransform="translate(0 294) scale(1 -1)" gradientUnits="userSpaceOnUse"><stop offset="0" stop-color="#00963a"></stop><stop offset=".16" stop-color="#06a541"></stop><stop offset=".47" stop-color="#0fbd4b"></stop><stop offset=".76" stop-color="#14cc52"></stop><stop offset="1" stop-color="#16d154"></stop></linearGradient><linearGradient id="linear-gradient1" x1="155.32" y1="229.97" x2="235.73" y2="229.97" gradientTransform="translate(0 294) scale(1 -1)" gradientUnits="userSpaceOnUse"><stop offset="0" stop-color="#ffac05"></stop><stop offset=".18" stop-color="#ffbe10"></stop><stop offset=".49" stop-color="#ffd820"></stop><stop offset=".78" stop-color="#ffe82a"></stop><stop offset="1" stop-color="#ffed2d"></stop></linearGradient><linearGradient id="linear-gradient2" x1="55.51" y1="238.18" x2="146.02" y2="238.18" gradientTransform="translate(0 294) scale(1 -1)" gradientUnits="userSpaceOnUse"><stop offset="0" stop-color="#ff4d05"></stop><stop offset=".28" stop-color="#ff6e16"></stop><stop offset=".55" stop-color="#f82"></stop><stop offset=".8" stop-color="#ff982a"></stop><stop offset="1" stop-color="#ff9d2d"></stop></linearGradient><linearGradient id="linear-gradient3" x1=".29" y1="167.29" x2="56.31" y2="167.29" gradientTransform="translate(0 294) scale(1 -1)" gradientUnits="userSpaceOnUse"><stop offset="0" stop-color="#ff0508"></stop><stop offset=".05" stop-color="#ff0c0b"></stop><stop offset=".32" stop-color="#ff2f1a"></stop><stop offset=".58" stop-color="#ff4924"></stop><stop offset=".81" stop-color="#ff592b"></stop><stop offset="1" stop-color="#ff5e2d"></stop></linearGradient><linearGradient id="linear-gradient4" x1="231.79" y1="158.24" x2="272.86" y2="158.24" gradientTransform="translate(0 294) scale(1 -1)" gradientUnits="userSpaceOnUse"><stop offset="0" stop-color="#00963a"></stop><stop offset=".16" stop-color="#06a541"></stop><stop offset=".47" stop-color="#0fbd4b"></stop><stop offset=".76" stop-color="#14cc52"></stop><stop offset="1" stop-color="#16d154"></stop></linearGradient><linearGradient id="linear-gradient5" x1="155.32" y1="229.97" x2="235.73" y2="229.97" gradientTransform="translate(0 294) scale(1 -1)" gradientUnits="userSpaceOnUse"><stop offset="0" stop-color="#ffac05"></stop><stop offset=".18" stop-color="#ffbe10"></stop><stop offset=".49" stop-color="#ffd820"></stop><stop offset=".78" stop-color="#ffe82a"></stop><stop offset="1" stop-color="#ffed2d"></stop></linearGradient><linearGradient id="linear-gradient6" x1="55.51" y1="238.18" x2="146.02" y2="238.18" gradientTransform="translate(0 294) scale(1 -1)" gradientUnits="userSpaceOnUse"><stop offset="0" stop-color="#ff4d05"></stop><stop offset=".28" stop-color="#ff6e16"></stop><stop offset=".55" stop-color="#f82"></stop><stop offset=".8" stop-color="#ff982a"></stop><stop offset="1" stop-color="#ff9d2d"></stop></linearGradient><linearGradient id="linear-gradient7" x1=".29" y1="167.29" x2="56.31" y2="167.29" gradientTransform="translate(0 294) scale(1 -1)" gradientUnits="userSpaceOnUse"><stop offset="0" stop-color="#ff0508"></stop><stop offset=".05" stop-color="#ff0c0b"></stop><stop offset=".32" stop-color="#ff2f1a"></stop><stop offset=".58" stop-color="#ff4924"></stop><stop offset=".81" stop-color="#ff592b"></stop><stop offset="1" stop-color="#ff5e2d"></stop></linearGradient></defs><g><path class="st10" d="M246.2,90.51c-1.06,2.44-2.56,4.72-4.55,6.71-2.83,2.83-6.25,4.69-9.86,5.64,14.38,19.86,22.17,43.67,22.17,68.71,0,5.22,4.23,9.45,9.45,9.45s9.45-4.23,9.45-9.45c0-29.6-9.35-57.75-26.65-81.06Z"></path><path class="st3" d="M232.97,75.18c-20.91-20.91-47.43-34.18-76.19-38.42.98,2.47,1.53,5.16,1.53,7.97,0,4-1.1,7.73-2.98,10.95,24.25,3.86,46.61,15.18,64.28,32.86,1.85,1.84,4.26,2.77,6.68,2.77s4.84-.92,6.68-2.77c3.69-3.69,3.69-9.67,0-13.36Z"></path><path class="st0" d="M136.57,35.29c-29.6,0-57.75,9.35-81.06,26.65,2.44,1.06,4.72,2.56,6.72,4.55,2.83,2.83,4.69,6.25,5.64,9.86,19.86-14.38,43.67-22.17,68.71-22.17,5.22,0,9.45-4.23,9.45-9.45s-4.23-9.45-9.45-9.45Z"></path><path class="st8" d="M9.74,181.02c-5.22,0-9.45-4.23-9.45-9.45,0-36.44,14.17-70.67,39.89-96.39,3.69-3.69,9.67-3.69,13.36,0,3.69,3.69,3.69,9.67,0,13.36-22.15,22.15-34.36,51.64-34.36,83.03,0,5.22-4.23,9.45-9.45,9.45Z"></path></g><g><path class="st5" d="M246.2,90.51c-1.06,2.44-2.56,4.72-4.55,6.71-2.83,2.83-6.25,4.69-9.86,5.64,14.38,19.86,22.17,43.67,22.17,68.71,0,5.22,4.23,9.45,9.45,9.45s9.45-4.23,9.45-9.45c0-29.6-9.35-57.75-26.65-81.06Z"></path><path class="st7" d="M232.97,75.18c-20.91-20.91-47.43-34.18-76.19-38.42.98,2.47,1.53,5.16,1.53,7.97,0,4-1.1,7.73-2.98,10.95,24.25,3.86,46.61,15.18,64.28,32.86,1.85,1.84,4.26,2.77,6.68,2.77s4.84-.92,6.68-2.77c3.69-3.69,3.69-9.67,0-13.36Z"></path><path class="st9" d="M136.57,35.29c-29.6,0-57.75,9.35-81.06,26.65,2.44,1.06,4.72,2.56,6.72,4.55,2.83,2.83,4.69,6.25,5.64,9.86,19.86-14.38,43.67-22.17,68.71-22.17,5.22,0,9.45-4.23,9.45-9.45s-4.23-9.45-9.45-9.45Z"></path><path class="st4" d="M9.74,181.02c-5.22,0-9.45-4.23-9.45-9.45,0-36.44,14.17-70.67,39.89-96.39,3.69-3.69,9.67-3.69,13.36,0,3.69,3.69,3.69,9.67,0,13.36-22.15,22.15-34.36,51.64-34.36,83.03,0,5.22-4.23,9.45-9.45,9.45Z"></path></g><circle class="st1" cx="136.62" cy="171.48" r="86.14"></circle><circle class="st2" cx="136.62" cy="171.47" r="40.23"></circle><circle class="st6" cx="136.62" cy="171.47" r="18.95"></circle><path class="st6" d="M137.22,174.87l-91.04-44.76c-1.87-.92-2.65-3.19-1.72-5.06.92-1.87,3.18-2.65,5.06-1.72l91.04,44.76c1.87.92,2.64,3.19,1.72,5.06-.66,1.34-2,2.11-3.39,2.11-.56,0-1.13-.12-1.67-.39Z"></path><path class="st2" d="M144.51,171.48c0,4.36-3.53,7.9-7.9,7.9s-7.9-3.53-7.9-7.9,3.53-7.9,7.9-7.9,7.9,3.53,7.9,7.9Z"></path></svg> 