<?xml version="1.0" encoding="UTF-8"?> <svg xmlns="http://www.w3.org/2000/svg" id="Objects" version="1.1" viewBox="0 0 273 294"><defs><style> .st0 { fill: #fff; } .st1 { fill: #559185; } </style></defs><g><polygon class="st0" points="244.85 44.56 244.85 292.33 32.23 292.33 32.23 2.35 206.46 2.35 244.85 44.56"></polygon><path class="st1" d="M247.2,294.68H29.88V0h177.61l39.71,43.65v251.03ZM34.58,289.98h207.92V45.46L205.42,4.7H34.58v285.28Z"></path></g><g><path class="st1" d="M122.2,251.12c-.96,0-1.78-.34-2.46-1.01-.68-.68-1.01-1.49-1.01-2.45v-7.92c0-.96.34-1.78,1.02-2.46s1.5-1.01,2.45-1.01,1.78.34,2.45,1.02c.67.68,1.01,1.5,1.01,2.45v1.66h-2.27v-1.7c0-.35-.12-.64-.37-.89-.25-.25-.54-.37-.89-.37s-.64.12-.89.37c-.24.25-.36.54-.36.89v7.94c0,.35.12.64.36.89.24.24.54.36.89.36s.64-.12.89-.36c.25-.24.37-.54.37-.89v-2h2.27v2.03c0,.96-.34,1.78-1.02,2.45-.68.67-1.49,1.01-2.44,1.01Z"></path><path class="st1" d="M129.64,244.79v6.15h-2.19v-14.5h2.19v6.16h2.64v-6.16h2.19v14.5h-2.19v-6.15h-2.64Z"></path><path class="st1" d="M136.42,250.93v-14.52h6.23v2.2h-4.04v3.96h2.95v2.2h-2.95v3.96h4.04v2.2h-6.23Z"></path><path class="st1" d="M147.63,251.12c-.96,0-1.78-.34-2.46-1.01-.68-.68-1.01-1.49-1.01-2.45v-7.92c0-.96.34-1.78,1.02-2.46.68-.68,1.5-1.01,2.45-1.01s1.78.34,2.45,1.02c.67.68,1.01,1.5,1.01,2.45v1.66h-2.27v-1.7c0-.35-.12-.64-.37-.89-.25-.25-.54-.37-.89-.37s-.64.12-.89.37c-.24.25-.36.54-.36.89v7.94c0,.35.12.64.36.89.24.24.54.36.89.36s.64-.12.89-.36c.25-.24.37-.54.37-.89v-2h2.27v2.03c0,.96-.34,1.78-1.02,2.45-.68.67-1.49,1.01-2.44,1.01Z"></path><path class="st1" d="M155.07,246.33v4.6h-2.19v-14.52h2.19v5.17l2.67-5.17h2.33l-2.99,5.92,3.51,8.59h-2.57l-2.3-5.89-.65,1.29Z"></path><path class="st1" d="M132.09,270.49h-5.96v-14.5h2.19v12.33h3.77v2.18Z"></path><path class="st1" d="M135.79,270.49h-2.19v-14.5h2.19v14.5Z"></path><path class="st1" d="M144.85,266.88c.02,1.01-.25,1.88-.79,2.59-.35.49-.86.83-1.5,1.03-.35.11-.75.16-1.22.16-.86,0-1.57-.21-2.13-.64-.47-.35-.84-.82-1.12-1.42-.27-.6-.43-1.28-.48-2.05l2.08-.15c.09.85.32,1.46.67,1.84.26.29.56.42.9.41.48-.02.86-.25,1.15-.71.15-.22.22-.54.22-.96,0-.6-.27-1.2-.82-1.8-.43-.41-1.08-1.02-1.94-1.84-.73-.7-1.24-1.33-1.54-1.89-.32-.63-.49-1.31-.49-2.04,0-1.32.44-2.32,1.33-3,.55-.41,1.23-.61,2.04-.61s1.45.17,2,.52c.43.27.78.65,1.05,1.13.27.49.43,1.05.48,1.68l-2.1.38c-.06-.59-.23-1.06-.51-1.39-.2-.24-.49-.36-.87-.36-.4,0-.71.18-.91.53-.17.29-.25.64-.25,1.06,0,.66.29,1.34.86,2.03.22.26.54.57.97.93.51.42.85.72,1.01.89.54.54.96,1.07,1.25,1.6.14.25.25.47.34.68.21.52.32.98.32,1.39Z"></path><path class="st1" d="M148.68,258.19h-2.33v-2.2h6.83v2.2h-2.32v12.3h-2.19v-12.3Z"></path></g><rect class="st1" x="89.56" y="220.16" width="100.2" height=".94"></rect><g><polygon class="st1" points="244.85 44.56 206.46 44.56 206.46 2.35 244.85 44.56"></polygon><path class="st1" d="M244.85,46.91h-38.39c-1.3,0-2.35-1.05-2.35-2.35V2.35c0-.97.6-1.84,1.5-2.19.91-.35,1.93-.11,2.59.61l38.39,42.21c.63.69.79,1.68.41,2.53-.38.85-1.22,1.4-2.15,1.4ZM208.81,42.21h30.73l-30.73-33.78v33.78Z"></path></g><g><rect class="st1" x="43.06" y="19.01" width=".35" height="2.11"></rect><path class="st1" d="M190.03,21.12h-.7v-2.11h.7v2.11ZM185.84,21.12h-.7v-2.11h.7v2.11ZM181.65,21.12h-.7v-2.11h.7v2.11ZM177.46,21.12h-.7v-2.11h.7v2.11ZM173.27,21.12h-.7v-2.11h.7v2.11ZM169.08,21.12h-.7v-2.11h.7v2.11ZM164.89,21.12h-.7v-2.11h.7v2.11ZM160.71,21.12h-.7v-2.11h.7v2.11ZM156.52,21.12h-.7v-2.11h.7v2.11ZM152.33,21.12h-.7v-2.11h.7v2.11ZM148.14,21.12h-.7v-2.11h.7v2.11ZM143.95,21.12h-.7v-2.11h.7v2.11ZM139.76,21.12h-.7v-2.11h.7v2.11ZM135.57,21.12h-.7v-2.11h.7v2.11ZM131.38,21.12h-.7v-2.11h.7v2.11ZM127.19,21.12h-.7v-2.11h.7v2.11ZM123,21.12h-.7v-2.11h.7v2.11ZM118.82,21.12h-.7v-2.11h.7v2.11ZM114.63,21.12h-.7v-2.11h.7v2.11ZM110.44,21.12h-.7v-2.11h.7v2.11ZM106.25,21.12h-.7v-2.11h.7v2.11ZM102.06,21.12h-.7v-2.11h.7v2.11ZM97.87,21.12h-.7v-2.11h.7v2.11ZM93.68,21.12h-.7v-2.11h.7v2.11ZM89.49,21.12h-.7v-2.11h.7v2.11ZM85.3,21.12h-.7v-2.11h.7v2.11ZM81.11,21.12h-.7v-2.11h.7v2.11ZM76.93,21.12h-.7v-2.11h.7v2.11ZM72.74,21.12h-.7v-2.11h.7v2.11ZM68.55,21.12h-.7v-2.11h.7v2.11ZM64.36,21.12h-.7v-2.11h.7v2.11ZM60.17,21.12h-.7v-2.11h.7v2.11ZM55.98,21.12h-.7v-2.11h.7v2.11ZM51.79,21.12h-.7v-2.11h.7v2.11ZM47.6,21.12h-.7v-2.11h.7v2.11Z"></path><rect class="st1" x="193.52" y="19.01" width=".35" height="2.11"></rect></g><g><path class="st1" d="M90.07,111.21c-.22,0-.43-.13-.53-.33-6.55-12.94-17.07-18.82-17.17-18.87-.21-.12-.33-.35-.3-.6.03-.24.21-.44.44-.5,1.62-.4,3.24-.61,4.8-.61,4.22,0,8.11,1.44,11.58,4.29,1.84-3.35,9.79-16.22,26.46-23.12.27-.11.58,0,.73.24.15.25.09.58-.13.76-10.24,8.39-18.93,24.92-25.35,38.39-.1.2-.3.33-.53.34h0Z"></path><path class="st1" d="M102.87,122.68h-40.27c-1.3,0-2.35-1.05-2.35-2.35v-40.27c0-1.3,1.05-2.35,2.35-2.35h28.07v4.7h-25.72v35.57h35.57v-17.79h4.7v20.13c0,1.3-1.05,2.35-2.35,2.35Z"></path></g><path class="st1" d="M215.28,102.55h-85.68c-1.3,0-2.35-1.05-2.35-2.35s1.05-2.35,2.35-2.35h85.68c1.3,0,2.35,1.05,2.35,2.35s-1.05,2.35-2.35,2.35Z"></path><path class="st1" d="M215.28,168.37h-85.68c-1.3,0-2.35-1.05-2.35-2.35s1.05-2.35,2.35-2.35h85.68c1.3,0,2.35,1.05,2.35,2.35s-1.05,2.35-2.35,2.35Z"></path><g><path class="st1" d="M90.07,177.83c-.22,0-.43-.13-.53-.33-6.55-12.94-17.07-18.82-17.17-18.87-.21-.12-.33-.35-.3-.6.03-.24.21-.44.44-.5,1.62-.4,3.24-.61,4.8-.61,4.22,0,8.11,1.44,11.58,4.29,1.84-3.35,9.79-16.22,26.46-23.12.27-.11.58,0,.73.24.15.25.09.58-.13.76-10.24,8.39-18.93,24.92-25.35,38.39-.1.2-.3.33-.53.34h0Z"></path><path class="st1" d="M102.87,189.3h-40.27c-1.3,0-2.35-1.05-2.35-2.35v-40.27c0-1.3,1.05-2.35,2.35-2.35h28.07v4.7h-25.72v35.57h35.57v-17.79h4.7v20.13c0,1.3-1.05,2.35-2.35,2.35Z"></path></g></svg> 