<?xml version="1.0" encoding="UTF-8"?> <svg xmlns="http://www.w3.org/2000/svg" id="Layer_1" version="1.1" viewBox="0 0 273 294"><defs><style> .st0 { fill: #467480; } .st1 { fill: #7e9dac; } </style></defs><path class="st0" d="M184.1,270.6h-94.6c-8.1,0-14.7-6.6-14.7-14.7v-26.7c0-1.7,1.4-3.1,3.1-3.1s3.1,1.4,3.1,3.1v26.7c0,4.7,3.8,8.5,8.5,8.5h94.6c4.7,0,8.5-3.8,8.5-8.5v-26.7c0-1.7,1.4-3.1,3.1-3.1s3.1,1.4,3.1,3.1v26.7c0,8.1-6.6,14.7-14.7,14.7Z"></path><path class="st0" d="M182.8,235.9h-25.2c-1.7,0-3.1-1.4-3.1-3.1v-4c0-2.2-1.7-3.9-3.9-3.9h-27.7c-2.2,0-3.9,1.7-3.9,3.9v4c0,1.7-1.4,3.1-3.1,3.1h-25.2c-15.6,0-28.3-12.7-28.3-28.3s12.7-28.3,28.3-28.3h92.1c15.6,0,28.3,12.7,28.3,28.3s-12.6,28.3-28.3,28.3ZM160.8,229.7h22c12.1,0,22-9.9,22-22s-9.9-22-22-22h-92.1c-12.1,0-22,9.9-22,22s9.9,22,22,22h22v-.9c0-5.6,4.5-10.1,10.1-10.1h27.7c5.6,0,10.1,4.5,10.1,10.1v.9Z"></path><path class="st1" d="M150.6,247h-27.7c-5.6,0-10.1-4.5-10.1-10.1v-8c0-5.6,4.5-10.1,10.1-10.1h27.7c5.6,0,10.1,4.5,10.1,10.1v8c0,5.6-4.5,10.1-10.1,10.1ZM122.9,224.9c-2.2,0-3.9,1.7-3.9,3.9v8c0,2.2,1.7,3.9,3.9,3.9h27.7c2.2,0,3.9-1.7,3.9-3.9v-8c0-2.2-1.7-3.9-3.9-3.9h-27.7Z"></path><path class="st0" d="M167.9,185.6c-1.7,0-3.1-1.4-3.1-3.1v-15.3c0-6.7-5.5-12.2-12.2-12.2h-31.5c-6.7,0-12.2,5.5-12.2,12.2v15.3c0,1.7-1.4,3.1-3.1,3.1s-3.1-1.4-3.1-3.1v-15.3c0-10.1,8.3-18.4,18.4-18.4h31.5c10.1,0,18.4,8.3,18.4,18.4v15.3c0,1.7-1.4,3.1-3.1,3.1Z"></path><path class="st0" d="M136.8,154.9c-1.7,0-3.1-1.4-3.1-3.1v-41.9c0-1.7,1.4-3.1,3.1-3.1s3.1,1.4,3.1,3.1v41.9c0,1.7-1.4,3.1-3.1,3.1Z"></path><path class="st0" d="M214,136.8H59.5c-10.7,0-19.4-8.7-19.4-19.4v-7.5c0-1.7,1.4-3.1,3.1-3.1s3.1,1.4,3.1,3.1v7.5c0,7.2,5.9,13.1,13.1,13.1h154.5c7.2,0,13.1-5.9,13.1-13.1v-7.5c0-1.7,1.4-3.1,3.1-3.1s3.1,1.4,3.1,3.1v7.5c0,10.7-8.7,19.4-19.4,19.4Z"></path><path class="st1" d="M63.6,107.6c-1.7,0-3.1-1.4-3.1-3.1v-14.9c0-5.3-2.4-10.3-6.7-13.6-1.4-1.1-1.6-3-.6-4.4s3-1.6,4.4-.6c5.7,4.5,9,11.2,9,18.5v14.9c0,1.7-1.3,3.1-3.1,3.1ZM22.9,107.6c-1.7,0-3.1-1.4-3.1-3.1v-14.9c0-7.2,3.3-13.9,9-18.5,1.4-1.1,3.3-.8,4.4.6s.8,3.3-.6,4.4c-4.2,3.3-6.7,8.3-6.7,13.6v14.9c0,1.7-1.3,3.1-3.1,3.1Z"></path><path class="st1" d="M35.4,112.3c-1.7,0-3.1-1.4-3.1-3.1v-16.1c0-1.7,1.4-3.1,3.1-3.1s3.1,1.4,3.1,3.1v16.1c0,1.7-1.4,3.1-3.1,3.1Z"></path><path class="st1" d="M51.1,112.3c-1.7,0-3.1-1.4-3.1-3.1v-16.1c0-1.7,1.4-3.1,3.1-3.1s3.1,1.4,3.1,3.1v16.1c0,1.7-1.4,3.1-3.1,3.1Z"></path><path class="st1" d="M43.3,82c-11.3,0-20.4-9.2-20.4-20.4s9.2-20.4,20.4-20.4,20.4,9.2,20.4,20.4-9.2,20.4-20.4,20.4ZM43.3,47.4c-7.8,0-14.2,6.4-14.2,14.2s6.4,14.2,14.2,14.2,14.2-6.4,14.2-14.2-6.4-14.2-14.2-14.2Z"></path><path class="st1" d="M157.1,107.6c-1.7,0-3.1-1.4-3.1-3.1v-14.9c0-5.3-2.4-10.3-6.7-13.6-1.4-1.1-1.6-3-.6-4.4s3-1.6,4.4-.6c5.7,4.5,9,11.2,9,18.5v14.9c0,1.7-1.3,3.1-3.1,3.1ZM116.4,107.6c-1.7,0-3.1-1.4-3.1-3.1v-14.9c0-7.2,3.3-13.9,9-18.5,1.4-1.1,3.3-.8,4.4.6s.8,3.3-.6,4.4c-4.2,3.3-6.7,8.3-6.7,13.6v14.9c0,1.7-1.3,3.1-3.1,3.1Z"></path><path class="st1" d="M129,112.3c-1.7,0-3.1-1.4-3.1-3.1v-16.1c0-1.7,1.4-3.1,3.1-3.1s3.1,1.4,3.1,3.1v16.1c0,1.7-1.4,3.1-3.1,3.1Z"></path><path class="st1" d="M144.6,112.3c-1.7,0-3.1-1.4-3.1-3.1v-16.1c0-1.7,1.4-3.1,3.1-3.1s3.1,1.4,3.1,3.1v16.1c0,1.7-1.4,3.1-3.1,3.1Z"></path><path class="st1" d="M136.8,82c-11.3,0-20.4-9.2-20.4-20.4s9.2-20.4,20.4-20.4,20.4,9.2,20.4,20.5-9.2,20.4-20.4,20.4ZM136.8,47.4c-7.8,0-14.2,6.4-14.2,14.2s6.4,14.2,14.2,14.2,14.2-6.4,14.2-14.2-6.4-14.2-14.2-14.2Z"></path><path class="st1" d="M250.6,107.6c-1.7,0-3.1-1.4-3.1-3.1v-14.9c0-5.3-2.4-10.3-6.7-13.6-1.4-1.1-1.6-3-.6-4.4s3-1.6,4.4-.6c5.7,4.5,9,11.2,9,18.5v14.9c0,1.7-1.3,3.1-3.1,3.1ZM210,107.6c-1.7,0-3.1-1.4-3.1-3.1v-14.9c0-7.2,3.3-13.9,9-18.5,1.4-1.1,3.3-.8,4.4.6s.8,3.3-.6,4.4c-4.2,3.3-6.7,8.3-6.7,13.6v14.9c0,1.7-1.3,3.1-3.1,3.1Z"></path><path class="st1" d="M222.5,112.3c-1.7,0-3.1-1.4-3.1-3.1v-16.1c0-1.7,1.4-3.1,3.1-3.1s3.1,1.4,3.1,3.1v16.1c0,1.7-1.4,3.1-3.1,3.1Z"></path><path class="st1" d="M238.1,112.3c-1.7,0-3.1-1.4-3.1-3.1v-16.1c0-1.7,1.4-3.1,3.1-3.1s3.1,1.4,3.1,3.1v16.1c0,1.7-1.4,3.1-3.1,3.1Z"></path><path class="st1" d="M230.3,82c-11.3,0-20.4-9.2-20.4-20.4s9.2-20.4,20.4-20.4,20.4,9.2,20.4,20.4-9.2,20.4-20.4,20.4ZM230.3,47.4c-7.8,0-14.2,6.4-14.2,14.2s6.4,14.2,14.2,14.2,14.2-6.4,14.2-14.2-6.4-14.2-14.2-14.2Z"></path><path class="st0" d="M105.7,235.9c-1.7,0-3.1-1.4-3.1-3.1v-19.1c0-1.7,1.4-3.1,3.1-3.1s3.1,1.4,3.1,3.1v19.1c0,1.7-1.4,3.1-3.1,3.1ZM93.1,235.9c-1.7,0-3.1-1.4-3.1-3.1v-19.1c0-1.7,1.4-3.1,3.1-3.1s3.1,1.4,3.1,3.1v19.1c0,1.7-1.4,3.1-3.1,3.1ZM105.7,204.7c-1.7,0-3.1-1.4-3.1-3.1v-19.1c0-1.7,1.4-3.1,3.1-3.1s3.1,1.4,3.1,3.1v19.1c0,1.7-1.4,3.1-3.1,3.1ZM93.1,204.7c-1.7,0-3.1-1.4-3.1-3.1v-19.1c0-1.7,1.4-3.1,3.1-3.1s3.1,1.4,3.1,3.1v19.1c0,1.7-1.4,3.1-3.1,3.1Z"></path><path class="st0" d="M180.4,235.9c-1.7,0-3.1-1.4-3.1-3.1v-19.1c0-1.7,1.4-3.1,3.1-3.1s3.1,1.4,3.1,3.1v19.1c0,1.7-1.4,3.1-3.1,3.1ZM167.9,235.9c-1.7,0-3.1-1.4-3.1-3.1v-19.1c0-1.7,1.4-3.1,3.1-3.1s3.1,1.4,3.1,3.1v19.1c0,1.7-1.4,3.1-3.1,3.1ZM180.4,204.7c-1.7,0-3.1-1.4-3.1-3.1v-19.1c0-1.7,1.4-3.1,3.1-3.1s3.1,1.4,3.1,3.1v19.1c0,1.7-1.4,3.1-3.1,3.1ZM167.9,204.7c-1.7,0-3.1-1.4-3.1-3.1v-19.1c0-1.7,1.4-3.1,3.1-3.1s3.1,1.4,3.1,3.1v19.1c0,1.7-1.4,3.1-3.1,3.1Z"></path><path class="st0" d="M109.5,216.8h-20.1c-2.9,0-5.2-2.4-5.2-5.2v-8c0-2.9,2.4-5.2,5.2-5.2h20.1c2.9,0,5.2,2.4,5.2,5.2v8c0,2.9-2.4,5.2-5.2,5.2ZM90.4,210.6h18.1v-5.9h-18.1v5.9ZM109.5,204.7h0Z"></path><path class="st0" d="M184.2,216.8h-20.1c-2.9,0-5.2-2.4-5.2-5.2v-8c0-2.9,2.4-5.2,5.2-5.2h20.1c2.9,0,5.2,2.4,5.2,5.2v8c0,2.9-2.4,5.2-5.2,5.2ZM165.1,210.6h18.1v-5.9h-18.1v5.9ZM184.2,204.7h0Z"></path><path class="st0" d="M43.3,113C19,113-.8,93.2-.8,69S18.9,24.9,43.3,24.9s44.1,19.8,44.1,44.1-19.8,44.1-44.1,44.1ZM43.3,31c-20.9,0-37.9,17-37.9,37.9s17,37.9,37.9,37.9,37.9-17,37.9-37.9-17-37.9-37.9-37.9Z"></path><path class="st0" d="M136.8,113c-24.3,0-44.1-19.8-44.1-44.1s19.8-44.1,44.1-44.1,44.1,19.8,44.1,44.1-19.8,44.1-44.1,44.1ZM136.8,31c-20.9,0-37.9,17-37.9,37.9s17,37.9,37.9,37.9,37.9-17,37.9-37.9-17-37.9-37.9-37.9Z"></path><path class="st0" d="M230.3,113c-24.3,0-44.1-19.8-44.1-44.1s19.8-44.1,44.1-44.1,44.1,19.8,44.1,44.1-19.8,44.1-44.1,44.1ZM230.3,31c-20.9,0-37.9,17-37.9,37.9s17,37.9,37.9,37.9,37.9-17,37.9-37.9-17-37.9-37.9-37.9Z"></path></svg> 