<?xml version="1.0" encoding="UTF-8"?> <svg xmlns="http://www.w3.org/2000/svg" xmlns:xlink="http://www.w3.org/1999/xlink" id="Layer_1" version="1.1" viewBox="0 0 273 294"><defs><style> .st0 { fill: url(#linear-gradient2); } .st1 { fill: #fff; } .st2 { fill: url(#linear-gradient1); } .st3 { fill: url(#linear-gradient3); } .st4 { fill: url(#linear-gradient); } </style><linearGradient id="linear-gradient" x1="136.5" y1="283.6" x2="136.5" y2="14.4" gradientTransform="translate(0 296) scale(1 -1)" gradientUnits="userSpaceOnUse"><stop offset="0" stop-color="#126bff"></stop><stop offset="1" stop-color="#c61bff"></stop></linearGradient><linearGradient id="linear-gradient1" x1="140.8" y1="148.5" x2="151" y2="148.5" gradientTransform="matrix(1,0,0,1,0,0)" xlink:href="#linear-gradient"></linearGradient><linearGradient id="linear-gradient2" x1="129.2" y1="162.2" x2="145.9" y2="162.2" gradientTransform="matrix(1,0,0,1,0,0)" xlink:href="#linear-gradient"></linearGradient><linearGradient id="linear-gradient3" x1="124.1" y1="148.5" x2="134.2" y2="148.5" gradientTransform="matrix(1,0,0,1,0,0)" xlink:href="#linear-gradient"></linearGradient></defs><circle class="st4" cx="136.5" cy="147" r="134.6"></circle><path class="st1" d="M188.5,106l2.5-4.3,9.7,16.8h-2.8c-1.2,0-2.2,1-2.2,2.2v38h-9.3v-33.3c2.1-3.7,3.3-7.9,3.3-12.2,0-2.5-.4-4.9-1.1-7.2Z"></path><path class="st1" d="M200,160.8v-38h4.4c.8,0,1.5-.4,1.9-1.1.4-.7.4-1.5,0-2.2l-3.3-5.8,4-7,9.7,16.7h-2.9c-1.2,0-2.2,1-2.2,2.2v43.6h-14.9v-6.3h1.1c1.2,0,2.2-1,2.2-2.2Z"></path><path class="st1" d="M84.7,160.5c1.2,0,2.2-1,2.2-2.2v-25.2h-4.3v25.2c0,1.2,1,2.2,2.2,2.2Z"></path><path class="st1" d="M110.5,172.8c1.2,0,2.2-1,2.2-2.2v-11.4h-4.3v11.4c0,1.2,1,2.2,2.2,2.2Z"></path><rect class="st1" x="78.8" y="102" width="11.7" height="26.8"></rect><path class="st1" d="M112.7,101.7c0-1.2-1-2.2-2.2-2.2s-2.2,1-2.2,2.2v7h4.3v-7h0Z"></path><path class="st1" d="M86.9,89.4c0-1.2-1-2.2-2.2-2.2s-2.2,1-2.2,2.2v8.2h4.3v-8.2h0Z"></path><polygon class="st1" points="136.3 212.2 133.8 237.3 142.4 237.3 138.9 212.2 136.3 212.2"></polygon><path class="st1" d="M172.9,185.3l-9.1-4.2-17.5,21.2c0,0-.1.1-.2.2l-3.3,5.9s0,0,0,0l4.1,29h18.5v-30.8c0-1.2,1-2.2,2.2-2.2s2.2,1,2.2,2.2v30.8h14.1v-34.9c0-7.3-4.3-14-10.9-17.1Z"></path><polygon class="st1" points="138.1 207.8 141.9 201 137.5 195.3 133.1 201.1 136.9 207.8 138.1 207.8"></polygon><path class="st1" d="M128.7,202.1l-17.4-21-9.1,4.2c-6.6,3.1-10.9,9.8-10.9,17.1v34.9h14.1v-30.8c0-1.2,1-2.2,2.2-2.2s2.2,1,2.2,2.2v30.8h19.7l2.8-28.7s0,0,0-.1l-3.6-6.4h0Z"></path><path class="st1" d="M130.4,197.4l4.2-5.5-6.6-6.6c-.8-.8-1.6-1.7-2.4-2.6,0,0,0-.1-.1-.2t0,0c-.6-.8-1.2-1.6-1.7-2.4l-2.3-3.7-6.1,2.8,15,18.2Z"></path><path class="st1" d="M159.7,179.2l-6.1-2.8-2.3,3.7c-.6.9-1.2,1.7-1.8,2.6,0,0,0,0,0,0h0s0,0,0,0c-.7.9-1.5,1.8-2.3,2.6l-6.6,6.6,4.2,5.5,15-18.2Z"></path><path class="st1" d="M221.3,187h-39.1c1.2,1.3,2.2,2.8,3.1,4.3h36c1.2,0,2.2-1,2.2-2.2s-1-2.2-2.2-2.2Z"></path><path class="st1" d="M69.9,187V60.1c0-1.2-1-2.2-2.2-2.2s-2.2,1-2.2,2.2v129.1c0,1.2,1,2.2,2.2,2.2h22.1c.8-1.6,1.9-3,3.1-4.3h-23Z"></path><path class="st1" d="M144,182.2c.6-.5,1.1-1.1,1.6-1.7v-7c-1.9.8-4,1.4-6.2,1.5-.6,0-1.2,0-1.8,0h-.1c-.6,0-1.2,0-1.8,0-2.2-.2-4.2-.7-6.2-1.5v7c.5.6,1,1.2,1.6,1.7l6.5,6.4,6.5-6.4Z"></path><path class="st1" d="M136,170.7h3.1c8.3-.8,14.9-7.9,14.9-16.4v-15.2c0-1.2-.6-2.3-1.5-2.9-1.5-1-3.5-.8-4.6.5-2.1,2.2-5,3.5-8.1,3.5h-4.4c-3.1,0-6-1.3-8.1-3.5-.7-.7-1.7-1.1-2.6-1.1s-1.4.2-2,.6c-1,.7-1.5,1.8-1.5,2.9v15.2c0,.8,0,1.6.2,2.4,0,0,0,.1,0,.2,1.2,7.3,7.2,13.1,14.7,13.8Z"></path><path class="st2" d="M150.9,151c-.2,1.2-1.4,1.9-2.5,1.7-1.2-.2-1.9-1.4-1.7-2.5,0-.2,0-.4,0-.5-.2-.7-.9-1.2-1.6-1-.2,0-.4.2-.6.3-.9.8-2.3.7-3.1-.2s-.7-2.3.2-3.1c.7-.6,1.6-1.1,2.6-1.3.4,0,.8-.1,1.2-.1,2.6,0,5,1.8,5.5,4.4.2.8.2,1.5,0,2.3Z"></path><path class="st0" d="M138.4,166c-2.9.2-5.8-1-8.5-3.8-.8-.8-.8-2.2,0-3.1.4-.4,1-.6,1.5-.6s1.1.2,1.5.6c1.8,1.8,3.5,2.6,5.1,2.5,2.3-.2,3.9-2.2,3.9-2.3.7-.9,2.1-1.1,3-.4,1,.7,1.2,2.1.5,3-.1.1-2.8,3.7-7.1,4Z"></path><path class="st3" d="M133.7,148.8c-.8.9-2.2,1-3.1.2-.2-.2-.4-.3-.6-.3-.7-.2-1.4.3-1.6,1,0,.2,0,.4,0,.5.2,1.2-.5,2.3-1.7,2.5-1.2.2-2.3-.5-2.5-1.7-.1-.8-.1-1.5,0-2.3.6-2.6,2.9-4.4,5.5-4.4s.8,0,1.2.1c.9.2,1.8.7,2.6,1.3.9.8,1,2.2.2,3.1Z"></path><path class="st1" d="M116.7,154.3v-3.9h0c-4.7-4-7.1-10-6.5-16,.4-4.6,1.8-8.6,4.1-11.9,1-1.4,2.1-2.7,3.3-3.7v-5.6h-14.2v41.9h13.5c0-.2,0-.4,0-.7Z"></path><path class="st1" d="M116.7,143.9v-4.8c0-2.6,1.3-5,3.4-6.5,3.2-2.2,7.6-1.7,10.3,1.1,1.3,1.4,3,2.1,4.9,2.1h4.4c1.8,0,3.6-.8,4.9-2.1,2.7-2.9,7.1-3.4,10.3-1.1,2.1,1.5,3.4,3.9,3.4,6.5v5c1.9-2.7,2.9-6,2.6-9.2,0-.4,0-.7-.1-1.1-.8-5-3.7-5.5-6.1-5.3-.7,0-1.3-.2-1.8-.7-.4-.5-.6-1.2-.5-1.8.6-3.5-.6-5.8-3.8-7.5-1.7-.9-3.7-1.4-5.7-1.7-2.9-.4-5.9-.2-8.7,0-4,.3-9.1,1.5-13.1,4.7-1.2,1-2.3,2.1-3.2,3.5-1.9,2.7-3,6.1-3.4,9.9-.3,3.3.5,6.5,2.3,9.2Z"></path><path class="st1" d="M156.9,124.1c4.3.6,7.1,3.5,8.1,8.4,0,0,.1,0,.2,0,8.5,0,16.1-5.3,18.9-13.3h0c0,0,0,0,0-.1.7-2.1,1.1-4.3,1.1-6.6,0-3.7-1-7.3-3-10.5-3.7-6-10.1-9.6-17.1-9.6-11.1,0-20.1,9-20.1,20.1h0c1.9.5,3.8,1.1,5.5,2,4.1,2.2,6.3,5.5,6.3,9.6Z"></path></svg> 