<?xml version="1.0" encoding="UTF-8"?> <svg xmlns="http://www.w3.org/2000/svg" id="_x3C_Layer_x3E_" version="1.1" viewBox="0 0 273 294"><defs><style> .st0 { fill: #fff; } .st1 { fill: #282e5b; } </style></defs><path class="st1" d="M28.1,203.9c-14.3,0-26-11.7-26-26V52.2c0-14.3,11.7-26,26-26h12.6v-7.8c0-2,1.6-3.6,3.6-3.6s3.6,1.6,3.6,3.6v7.8h28.4v-7.8c0-2,1.6-3.6,3.6-3.6s3.6,1.6,3.6,3.6v7.8h28.4v-7.8c0-2,1.6-3.6,3.6-3.6s3.6,1.6,3.6,3.6v7.8h28.4v-7.8c0-2,1.6-3.6,3.6-3.6s3.6,1.6,3.6,3.6v7.8h12.6c14.4,0,26,11.7,26,26v125.6c0,14.3-11.7,26-26,26H28.1ZM9.3,177.8c0,10.4,8.4,18.8,18.8,18.8h139.4c10.4,0,18.8-8.4,18.8-18.8v-109.4s0-16.3,0-16.3c0-10.4-8.4-18.8-18.8-18.8h-12.6v17.1c0,2-1.6,3.6-3.6,3.6s-3.6-1.6-3.6-3.6v-17.1h-28.4v17.1c0,2-1.6,3.6-3.6,3.6s-3.6-1.6-3.6-3.6v-17.1h-28.4v17.1c0,2-1.6,3.6-3.6,3.6s-3.6-1.6-3.6-3.6v-17.1h-28.4v17.1c0,2-1.6,3.6-3.6,3.6s-3.6-1.6-3.6-3.6v-17.1h-12.6c-10.4,0-18.8,8.4-18.8,18.8v12.7h159.2c2,0,3.6,1.6,3.6,3.6s-1.6,3.6-3.6,3.6H9.3v105.8ZM84.5,175.9c-4.3,0-7.8-3.5-7.8-7.8v-23.7c0-4.3,3.5-7.8,7.8-7.8h26.6c4.3,0,7.8,3.5,7.8,7.8v23.7c0,4.3-3.5,7.8-7.8,7.8h-26.6ZM84.5,143.7c-.3,0-.6.3-.6.6v23.7c0,.3.3.6.6.6h26.6c.3,0,.6-.3.6-.6v-23.7c0-.3-.3-.6-.6-.6h-26.6ZM33.2,175.9c-4.3,0-7.8-3.5-7.8-7.8v-23.7c0-4.3,3.5-7.8,7.8-7.8h26.6c4.3,0,7.8,3.5,7.8,7.8v23.7c0,4.3-3.5,7.8-7.8,7.8h-26.6ZM33.2,143.7c-.3,0-.6.3-.6.6v23.7c0,.3.3.6.6.6h26.6c.3,0,.6-.3.6-.6v-23.7c0-.3-.3-.6-.6-.6h-26.6ZM135.8,127.6c-4.3,0-7.8-3.5-7.8-7.8v-23.7c0-4.3,3.5-7.8,7.8-7.8h26.6c4.3,0,7.8,3.5,7.8,7.8v23.7c0,4.3-3.5,7.8-7.8,7.8h-26.6ZM135.8,95.3c-.3,0-.6.3-.6.6v23.7c0,.3.3.6.6.6h26.6c.3,0,.6-.3.6-.6v-23.7c0-.3-.3-.6-.6-.6h-26.6ZM84.5,127.6c-4.3,0-7.8-3.5-7.8-7.8v-23.7c0-4.3,3.5-7.8,7.8-7.8h26.6c4.3,0,7.8,3.5,7.8,7.8v23.7c0,4.3-3.5,7.8-7.8,7.8h-26.6ZM84.5,95.3c-.3,0-.6.3-.6.6v23.7c0,.3.3.6.6.6h26.6c.3,0,.6-.3.6-.6v-23.7c0-.3-.3-.6-.6-.6h-26.6ZM33.2,127.6c-4.3,0-7.8-3.5-7.8-7.8v-23.7c0-4.3,3.5-7.8,7.8-7.8h26.6c4.3,0,7.8,3.5,7.8,7.8v23.7c0,4.3-3.5,7.8-7.8,7.8h-26.6ZM33.2,95.3c-.3,0-.6.3-.6.6v23.7c0,.3.3.6.6.6h26.6c.3,0,.6-.3.6-.6v-23.7c0-.3-.3-.6-.6-.6h-26.6Z"></path><circle class="st0" cx="201.3" cy="206.6" r="66.4"></circle><path class="st1" d="M201.7,276.7c-38.7,0-70.1-31.5-70.1-70.1s5.4-31.6,15.7-44.2l-15.1,2.3c-.2,0-.4,0-.6,0-1.8,0-3.3-1.3-3.5-3.1-.1-1,0-1.9.7-2.7.6-.8,1.4-1.3,2.4-1.4l24.6-3.7c.2,0,.4,0,.5,0,.8,0,1.6.3,2.3.8.8.6,1.3,1.6,1.3,2.6l1.5,24.8c.1,2-1.4,3.7-3.4,3.8,0,0-.1,0-.2,0-1.9,0-3.5-1.5-3.6-3.4l-.9-15.8c-9.3,11.2-14.4,25.4-14.4,40,0,34.7,28.2,62.9,62.9,62.9s62.9-28.2,62.9-62.9-28.2-62.9-62.9-62.9-11.1.7-16.4,2.2c-.3,0-.6.1-.9.1-1.6,0-3.1-1.1-3.5-2.7-.3-.9-.1-1.9.4-2.7.5-.8,1.3-1.4,2.2-1.7,5.9-1.6,12.1-2.4,18.3-2.4,38.7,0,70.1,31.5,70.1,70.1s-31.5,70.1-70.1,70.1Z"></path><path class="st1" d="M196,228.2c-1,0-1.9-.4-2.5-1.1l-22-22c-1.4-1.4-1.4-3.7,0-5.1.7-.7,1.6-1.1,2.5-1.1s1.9.4,2.5,1.1l19.4,19.4,31.2-31.2c.7-.7,1.6-1.1,2.5-1.1s1.9.4,2.5,1.1c1.4,1.4,1.4,3.7,0,5.1l-33.8,33.8c-.7.7-1.6,1.1-2.5,1.1Z"></path></svg> 